#!OML:ASF H:\Punching\Project 1\Capture day 1\Session 1\female.ASF
:FULLY-SPECIFIED
:DEGREES
64
root -0.315432 14.8957 -1.78001 9.22788 0.128996 0.246061
lowerback 2.65036 -2.08739 -1.00119
upperback -6.28874 -2.85972 0.301536
thorax -8.0044 -1.33646 1.14831
lowerneck -12.6936 -7.73833 -3.14513
upperneck 29.2915 -10.0692 -1.38863
head 11.7575 -5.09023 -1.37406
rclavicle -1.74061e-014 -4.52235e-015
rhumerus 34.948 10.551 -62.406
rradius 65.48
rwrist -1.13792
rhand 34.0379 -37.8833
rfingers 7.12502
rthumb 57.296 -54.22
lclavicle -1.74061e-014 -4.52235e-015
lhumerus 27.0353 -5.69153 57.0234
lradius 79.6068
lwrist -10.0195
lhand 36.6996 27.0649
lfingers 7.12502
lthumb 59.6076 41.2506
rfemur -28.8973 -7.22701 16.8663
rtibia 52.3915
rfoot -29.016 -8.43673
rtoes -12.2585
lfemur -29.3165 1.77214 -16.8782
ltibia 50.7225
lfoot -25.2402 7.94772
ltoes -13.9619
65
root -0.316117 14.8951 -1.77758 9.21709 0.116605 0.236611
lowerback 2.63947 -2.05874 -0.983955
upperback -6.28193 -2.82195 0.269853
thorax -7.99395 -1.32022 1.10133
lowerneck -12.9023 -7.49072 -2.93268
upperneck 29.7297 -9.75802 -1.43936
head 11.9531 -4.92636 -1.40879
rclavicle 2.82958e-015 -3.72721e-015
rhumerus 34.8595 10.503 -62.433
rradius 65.4468
rwrist -1.18601
rhand 34.0591 -37.8826
rfingers 7.12502
rthumb 57.3146 -54.2035
lclavicle 2.82958e-015 -3.72721e-015
lhumerus 27.0423 -5.80734 57.0219
lradius 79.5806
lwrist -9.99807
lhand 36.6185 27.0662
lfingers 7.12502
lthumb 59.5379 41.3225
rfemur -28.8762 -7.18518 16.878
rtibia 52.3944
rfoot -29.0209 -8.48264
rtoes -12.2887
lfemur -29.2872 1.75842 -16.8612
ltibia 50.7234
lfoot -25.2394 7.95913
ltoes -13.9549
66
root -0.316838 14.8944 -1.77544 9.2098 0.12278 0.224791
lowerback 2.64981 -2.0441 -0.976111
upperback -6.28547 -2.80315 0.251325
thorax -8.00558 -1.31194 1.07633
lowerneck -13.1144 -7.23848 -2.66714
upperneck 30.1794 -9.43966 -1.53858
head 12.1506 -4.75962 -1.46892
rclavicle 1.52785e-014 -1.00386e-014
rhumerus 34.7755 10.49 -62.456
rradius 65.4161
rwrist -1.22596
rhand 34.0122 -37.8237
rfingers 7.12502
rthumb 57.2734 -54.1796
lclavicle 1.52785e-014 -1.00386e-014
lhumerus 27.0585 -5.9143 57.0183
lradius 79.5218
lwrist -9.98535
lhand 36.5493 27.0547
lfingers 7.12502
lthumb 59.4784 41.3711
rfemur -28.8491 -7.16835 16.8901
rtibia 52.387
rfoot -29.0164 -8.4902
rtoes -12.2294
lfemur -29.2722 1.73282 -16.8423
ltibia 50.7243
lfoot -25.2412 7.98808
ltoes -14.0213
67
root -0.317719 14.8942 -1.77418 9.19522 0.106124 0.227038
lowerback 2.65079 -2.01821 -0.983173
upperback -6.27544 -2.77034 0.227171
thorax -7.9969 -1.29631 1.05166
lowerneck -13.3505 -6.98478 -2.44983
upperneck 30.656 -9.12286 -1.58683
head 12.3738 -4.59147 -1.50478
rclavicle -3.05352e-014 4.37326e-015
rhumerus 34.6978 10.4712 -62.4451
rradius 65.3843
rwrist -1.3058
rhand 34.028 -37.8858
rfingers 7.12502
rthumb 57.2873 -54.23
lclavicle -3.05352e-014 4.37326e-015
lhumerus 27.0911 -6.00297 57.0416
lradius 79.4807
lwrist -10.0214
lhand 36.5594 27.0255
lfingers 7.12502
lthumb 59.4871 41.3332
rfemur -28.8299 -7.11537 16.8884
rtibia 52.3842
rfoot -28.9779 -8.54803
rtoes -12.3037
lfemur -29.2487 1.72132 -16.8377
ltibia 50.7291
lfoot -25.2322 8.01271
ltoes -14.104
68
root -0.318953 14.8951 -1.77233 9.18195 0.09286 0.198562
lowerback 2.67233 -2.00002 -0.965727
upperback -6.27441 -2.74605 0.211104
thorax -8.01054 -1.28582 1.02371
lowerneck -13.5852 -6.70838 -2.15863
upperneck 31.1218 -8.77923 -1.67794
head 12.5891 -4.40883 -1.56367
rclavicle 2.38045e-014 -1.98785e-015
rhumerus 34.63 10.4599 -62.4852
rradius 65.3614
rwrist -1.32626
rhand 34.0414 -37.95
rfingers 7.12502
rthumb 57.2991 -54.2841
lclavicle 2.38045e-014 -1.98785e-015
lhumerus 27.1017 -6.09828 57.021
lradius 79.4439
lwrist -10.0081
lhand 36.4991 27.0161
lfingers 7.12502
lthumb 59.4353 41.3759
rfemur -28.8055 -7.06448 16.9201
rtibia 52.3734
rfoot -28.9836 -8.56087
rtoes -12.1785
lfemur -29.2216 1.70109 -16.7939
ltibia 50.7305
lfoot -25.2384 8.02405
ltoes -14.0663
69
root -0.31916 14.8952 -1.76908 9.22817 0.0122102 0.190266
lowerback 2.66535 -2.01584 -1.0587
upperback -6.38969 -2.76862 0.302012
thorax -8.12222 -1.28622 1.17581
lowerneck -13.6778 -6.39186 -1.83554
upperneck 31.6176 -8.29796 -2.05382
head 12.7736 -4.20169 -1.70943
rclavicle 1.2834e-014 1.28713e-014
rhumerus 34.3945 10.912 -62.0326
rradius 65.352
rwrist -1.78433
rhand 33.9886 -38.0352
rfingers 7.12502
rthumb 57.2526 -54.4087
lclavicle 1.2834e-014 1.28713e-014
lhumerus 26.8173 -6.1149 57.0858
lradius 79.443
lwrist -9.92689
lhand 36.5242 27.1942
lfingers 7.12502
lthumb 59.4568 41.5324
rfemur -28.8586 -6.95888 16.9247
rtibia 52.3647
rfoot -28.9571 -8.57834
rtoes -12.1726
lfemur -29.2408 1.74546 -16.7926
ltibia 50.7339
lfoot -25.2517 8.05546
ltoes -14.0913
70
root -0.320603 14.8946 -1.76924 9.16665 0.069741 0.20595
lowerback 2.67559 -1.9496 -0.977678
upperback -6.27291 -2.68283 0.155677
thorax -8.01434 -1.25586 0.966437
lowerneck -13.9487 -6.14603 -1.46278
upperneck 31.9723 -8.0763 -1.96018
head 12.9641 -4.03853 -1.72741
rclavicle -4.27636e-014 -1.11319e-014
rhumerus 34.4503 10.4295 -62.5009
rradius 65.2948
rwrist -1.37486
rhand 34.1026 -37.9228
rfingers 7.12502
rthumb 57.3527 -54.2111
lclavicle -4.27636e-014 -1.11319e-014
lhumerus 27.1448 -6.32607 57.0172
lradius 79.369
lwrist -10.0065
lhand 36.5231 27.0299
lfingers 7.12502
lthumb 59.4559 41.3689
rfemur -28.7688 -6.98094 16.9135
rtibia 52.3511
rfoot -28.956 -8.63301
rtoes -12.1957
lfemur -29.1819 1.66802 -16.7909
ltibia 50.7277
lfoot -25.2426 8.06127
ltoes -14.1359
71
root -0.320833 14.8958 -1.76843 9.15954 0.0647469 0.172522
lowerback 2.68225 -1.91582 -0.938166
upperback -6.26408 -2.63601 0.136115
thorax -8.0123 -1.23599 0.919556
lowerneck -14.1532 -5.89138 -1.20878
upperneck 32.4223 -7.77292 -1.9967
head 13.1841 -3.8705 -1.76342
rclavicle 1.74185e-014 1.21259e-014
rhumerus 34.365 10.3956 -62.4758
rradius 65.253
rwrist -1.42644
rhand 34.0521 -37.8801
rfingers 7.12502
rthumb 57.3084 -54.2062
lclavicle 1.74185e-014 1.21259e-014
lhumerus 27.2155 -6.45229 57.0242
lradius 79.333
lwrist -10.0023
lhand 36.562 27.0011
lfingers 7.12502
lthumb 59.4894 41.3065
rfemur -28.7511 -6.957 16.9528
rtibia 52.336
rfoot -28.9429 -8.65151
rtoes -12.1494
lfemur -29.1642 1.6476 -16.7469
ltibia 50.7211
lfoot -25.2439 8.05799
ltoes -14.0703
72
root -0.321005 14.8969 -1.76695 9.14804 0.0702414 0.168242
lowerback 2.66488 -1.89708 -0.930558
upperback -6.24836 -2.61118 0.11672
thorax -7.98679 -1.22524 0.891565
lowerneck -14.3049 -5.60859 -0.909027
upperneck 32.8247 -7.42288 -2.08493
head 13.3714 -3.68461 -1.81542
rclavicle -4.34966e-014 -3.18055e-015
rhumerus 34.3085 10.3788 -62.4848
rradius 65.2125
rwrist -1.46908
rhand 34.103 -37.8842
rfingers 7.12502
rthumb 57.353 -54.1722
lclavicle -4.34966e-014 -3.18055e-015
lhumerus 27.2534 -6.55111 57.018
lradius 79.3031
lwrist -9.96561
lhand 36.5369 27.0137
lfingers 7.12502
lthumb 59.4677 41.3409
rfemur -28.7181 -6.94332 16.9594
rtibia 52.3196
rfoot -28.9289 -8.67382
rtoes -12.1836
lfemur -29.1347 1.61416 -16.7379
ltibia 50.6968
lfoot -25.2417 8.07789
ltoes -14.0889
73
root -0.321631 14.8968 -1.7661 9.1446 0.06305 0.166355
lowerback 2.67277 -1.89741 -0.953228
upperback -6.27267 -2.61297 0.124951
thorax -8.01637 -1.22403 0.913918
lowerneck -14.4128 -5.29779 -0.597184
upperneck 33.2541 -7.02111 -2.21826
head 13.5628 -3.48106 -1.87834
rclavicle -1.47225e-015 -1.68967e-015
rhumerus 34.2255 10.4697 -62.4798
rradius 65.1978
rwrist -1.54938
rhand 34.1014 -37.8692
rfingers 7.12502
rthumb 57.3517 -54.1584
lclavicle -1.47225e-015 -1.68967e-015
lhumerus 27.1635 -6.61194 57.0142
lradius 79.2937
lwrist -9.91865
lhand 36.5014 26.9635
lfingers 7.12502
lthumb 59.4373 41.3213
rfemur -28.7094 -6.91791 16.9631
rtibia 52.3031
rfoot -28.9037 -8.68251
rtoes -12.1331
lfemur -29.1096 1.59104 -16.7314
ltibia 50.6746
lfoot -25.2409 8.11081
ltoes -14.107
74
root -0.321102 14.8982 -1.76473 9.13781 0.0713686 0.202501
lowerback 2.65999 -1.85707 -0.956463
upperback -6.24022 -2.5626 0.0629638
thorax -7.97744 -1.20171 0.84472
lowerneck -14.6514 -5.03232 -0.210829
upperneck 33.6731 -6.71459 -2.32761
head 13.7792 -3.30462 -1.96402
rclavicle -2.44132e-015 6.4605e-015
rhumerus 34.1545 10.3563 -62.493
rradius 65.1665
rwrist -1.60949
rhand 34.1182 -37.8798
rfingers 7.12502
rthumb 57.3664 -54.1565
lclavicle -2.44132e-015 6.4605e-015
lhumerus 27.2983 -6.749 56.995
lradius 79.2853
lwrist -9.88385
lhand 36.5196 26.9884
lfingers 7.12502
lthumb 59.4529 41.3305
rfemur -28.6796 -6.92429 16.9168
rtibia 52.2815
rfoot -28.9067 -8.68732
rtoes -12.0988
lfemur -29.0717 1.54787 -16.7719
ltibia 50.6365
lfoot -25.2389 8.13997
ltoes -14.1046
